<?xml version="1.0" encoding="UTF-8"?>
<svg id="Layer_1" data-name="Layer 1" xmlns="http://www.w3.org/2000/svg" viewBox="0 0 2772.57 411.93">
  <defs>
    <style>
      .cls-1, .cls-2 {
        fill: #fff;
      }

      .cls-3 {
        fill: #ed2224;
      }

      .cls-3, .cls-2 {
        fill-rule: evenodd;
      }
    </style>
  </defs>
  <path class="cls-3" d="M197.28,0V294.93L27.71,403.43,197.28,0h0Zm17.78,0V294.93l169.57,108.49L215.06,0h0Z"/>
  <path class="cls-2" d="M246.57,13.88c89.65,20.45,156.54,100.66,156.54,196.5,0,38.6-10.86,74.66-29.68,105.31l-15.63-37.19c9.11-20.87,14.18-43.9,14.18-68.12,0-72.75-45.59-134.85-109.76-159.29l-15.64-37.21h0Zm60.68,368.13c-30.73,18.97-66.93,29.92-105.7,29.92s-71.25-9.85-100.93-27.06l30.28-19.37c21.52,9.82,45.45,15.3,70.65,15.3,27.29,0,53.07-6.43,75.94-17.83l29.76,19.04h0ZM35.29,324.32C13.03,291.91,0,252.67,0,210.38,0,110.98,71.96,28.39,166.63,11.85l-14.94,35.53C81.9,68.7,31.14,133.61,31.14,210.38c0,28.28,6.89,54.95,19.09,78.42l-14.93,35.52h0Z"/>
  <path class="cls-1" d="M545.55,33.1V364.13h57.87V33.1h-57.87Zm195.19,69.15c0-11.77,6.87-19.13,20.11-19.13,10.29,0,16.18,4.41,20.59,14.22l96.62,211.38c13.73,37.76,34.82,61.3,80.92,61.3,51.01,0,76.02-28.94,76.02-72.58V33.1h-58.36V294.98c0,11.28-7.36,18.64-19.62,18.64-10.79,0-17.17-5.88-21.09-13.73l-96.61-211.38c-13.73-37.76-34.33-61.3-80.43-61.3-51.5,0-76.02,28.94-76.02,72.09V364.13h57.87V102.25h0Zm492.88-69.15c-87.78,0-122.12,48.06-122.12,114.27v216.77h57.87V233.19h199.6v-54.93h-199.6v-31.39c0-30.9,15.69-55.91,68.17-55.91h133.4V33.1h-137.32Zm205.98,0V364.13h57.87V33.1h-57.87Zm195.19,69.15c0-11.77,6.86-19.13,20.11-19.13,10.3,0,16.18,4.41,20.6,14.22l96.61,211.38c13.73,37.76,34.82,61.3,80.92,61.3,51,0,76.01-28.94,76.01-72.58V33.1h-58.36V294.98c0,11.28-7.36,18.64-19.62,18.64-10.79,0-17.16-5.88-21.09-13.73l-96.61-211.38c-13.73-37.76-34.33-61.3-80.43-61.3-51.5,0-76.01,28.94-76.01,72.09V364.13h57.87V102.25h0Zm373.7-69.15V364.13h57.87V33.1h-57.87Zm165.27,0c-18.64,0-27.46,8.83-27.46,26.97V337.16c0,18.15,8.83,26.97,27.46,26.97h116.72c97.1,0,149.09-53.95,149.09-165.27s-52.48-165.76-149.09-165.76h-116.72Zm30.41,63.76c0-4.42,1.96-5.89,6.38-5.89h79.93c64.25,0,91.22,31.88,91.22,107.4s-26.97,107.9-91.22,107.9h-79.93c-4.42,0-6.38-1.47-6.38-5.89V96.85h0Zm402.15-63.76c-77.98,0-110.84,37.27-110.84,90.24,0,36.29,15.69,61.79,46.59,74.54-30.4,12.75-47.57,38.25-47.57,76.02,0,51.49,31.88,90.24,110.34,90.24h167.73v-57.87h-167.73c-33.84,0-50.02-15.69-50.02-41.69s17.16-40.21,50.51-40.21h164.29v-52.47h-162.82c-33.35,0-50.51-12.26-50.51-39.24,0-25.5,15.2-41.69,50.03-41.69h165.76V33.1h-165.76Z"/>
</svg>