<?xml version="1.0" encoding="UTF-8"?>
<svg id="Layer_1" data-name="Layer 1" xmlns="http://www.w3.org/2000/svg" viewBox="0 0 438.46 495.33">
  <defs>
    <style>
      .cls-1, .cls-2 {
        fill: #1a1a1a;
      }

      .cls-2, .cls-3 {
        fill-rule: evenodd;
      }

      .cls-3 {
        fill: #ed2224;
      }
    </style>
  </defs>
  <path class="cls-3" d="M215.11,0V284.5L51.54,389.15,215.11,0h0Zm17.15,0V284.5l163.57,104.66L232.26,0h0Z"/>
  <path class="cls-2" d="M262.65,13.39c86.47,19.73,151,97.1,151,189.55,0,37.24-10.47,72.02-28.63,101.59l-15.08-35.87c8.79-20.13,13.67-42.35,13.67-65.71,0-70.18-43.98-130.08-105.88-153.66l-15.08-35.89h0Zm58.53,355.11c-29.64,18.3-64.57,28.86-101.96,28.86s-68.73-9.5-97.36-26.1l29.21-18.69c20.76,9.47,43.84,14.76,68.15,14.76,26.32,0,51.2-6.2,73.25-17.2l28.71,18.37h0ZM58.85,312.85c-21.47-31.26-34.04-69.12-34.04-109.91C24.81,107.05,94.22,27.39,185.54,11.43l-14.41,34.27c-67.32,20.57-116.29,83.18-116.29,157.23,0,27.28,6.65,53,18.41,75.65l-14.4,34.26h0Z"/>
  <path class="cls-1" d="M0,429v65.17H11.39v-65.17H0Zm38.43,13.61c0-2.32,1.35-3.77,3.96-3.77,2.03,0,3.19,.87,4.06,2.8l19.02,41.62c2.7,7.43,6.86,12.07,15.93,12.07,10.04,0,14.97-5.7,14.97-14.29v-52.04h-11.49v51.56c0,2.22-1.45,3.67-3.86,3.67-2.13,0-3.38-1.16-4.15-2.7l-19.02-41.62c-2.7-7.43-6.76-12.07-15.83-12.07-10.14,0-14.97,5.7-14.97,14.19v52.14h11.39v-51.56h0Zm97.04-13.61c-17.28,0-24.04,9.46-24.04,22.5v42.68h11.39v-25.78h39.3v-10.81h-39.3v-6.18c0-6.08,3.09-11.01,13.42-11.01h26.26v-11.39h-27.04Zm40.55,0v65.17h11.39v-65.17h-11.39Zm38.43,13.61c0-2.32,1.35-3.77,3.96-3.77,2.03,0,3.19,.87,4.06,2.8l19.02,41.62c2.7,7.43,6.86,12.07,15.93,12.07,10.04,0,14.97-5.7,14.97-14.29v-52.04h-11.49v51.56c0,2.22-1.45,3.67-3.86,3.67-2.12,0-3.38-1.16-4.15-2.7l-19.02-41.62c-2.7-7.43-6.76-12.07-15.83-12.07-10.14,0-14.97,5.7-14.97,14.19v52.14h11.39v-51.56h0Zm73.57-13.61v65.17h11.39v-65.17h-11.39Zm32.54,0c-3.67,0-5.41,1.74-5.41,5.31v54.55c0,3.57,1.74,5.31,5.41,5.31h22.98c19.12,0,29.35-10.62,29.35-32.54s-10.33-32.64-29.35-32.64h-22.98Zm5.99,12.55c0-.87,.39-1.16,1.25-1.16h15.74c12.65,0,17.96,6.28,17.96,21.15s-5.31,21.24-17.96,21.24h-15.74c-.87,0-1.25-.29-1.25-1.16v-40.07h0Zm79.17-12.55c-15.35,0-21.82,7.34-21.82,17.77,0,7.14,3.09,12.17,9.17,14.68-5.99,2.51-9.37,7.53-9.37,14.97,0,10.14,6.28,17.77,21.73,17.77h33.02v-11.39h-33.02c-6.66,0-9.85-3.09-9.85-8.21s3.38-7.92,9.95-7.92h32.34v-10.33h-32.06c-6.57,0-9.94-2.41-9.94-7.72,0-5.02,2.99-8.21,9.85-8.21h32.64v-11.39h-32.64Z"/>
</svg>